<?xml version="1.0" standalone="no"?>
<!DOCTYPE svg PUBLIC "-//W3C//DTD SVG 20010904//EN"
 "http://www.w3.org/TR/2001/REC-SVG-20010904/DTD/svg10.dtd">
<svg version="1.0" xmlns="http://www.w3.org/2000/svg"
 width="587.000000pt" height="768.000000pt" viewBox="0 0 587.000000 768.000000"
 preserveAspectRatio="xMidYMid meet">
<metadata>
Created by potrace 1.15, written by Peter Selinger 2001-2017
</metadata>
<g transform="translate(0.000000,768.000000) scale(0.100000,-0.100000)"
fill="#000000" stroke="none">
<path d="M2936 7499 c-10 -24 -472 -1230 -1028 -2679 -555 -1449 -1183 -3087
-1395 -3640 -212 -553 -388 -1013 -391 -1023 -4 -16 136 -17 2833 -17 2698 0
2837 1 2830 18 -5 13 -2791 7280 -2824 7366 -6 16 -11 11 -25 -25z m319 -854
l261 -680 -66 -162 c-36 -90 -69 -165 -73 -169 -3 -3 -51 85 -107 196 -56 111
-103 201 -104 199 -2 -2 -43 -92 -91 -199 -48 -107 -91 -199 -95 -203 -4 -4
-37 81 -75 190 -37 109 -70 204 -74 211 -4 7 -54 -73 -125 -204 -65 -118 -122
-212 -126 -207 -5 4 -47 89 -95 189 l-87 181 270 704 c149 387 274 713 278
723 6 16 11 9 28 -35 11 -30 138 -360 281 -734z m-360 -920 c37 -110 70 -203
74 -207 3 -4 48 87 100 203 52 115 97 209 100 209 3 0 51 -88 105 -195 55
-107 103 -195 106 -195 4 0 40 81 80 181 40 99 76 176 80 172 5 -6 2144 -5578
2188 -5700 3 -10 -555 -13 -2772 -13 -1802 0 -2776 3 -2776 10 0 5 489 1284
1086 2842 597 1558 1092 2849 1099 2868 l13 35 102 -210 101 -209 47 84 c26
47 79 142 117 212 38 70 72 124 76 120 3 -4 36 -97 74 -207z"/>
</g>
</svg>
