<svg id="Layer_1" data-name="Layer 1" xmlns="http://www.w3.org/2000/svg" viewBox="0 0 566.33 739.27"><defs><style>.cls-1{fill:#fff;}</style></defs><title>mountain-blank2</title><path class="cls-1" d="M325.5,103.5l26.1,68L345,187.7c-3.6,9-6.9,16.5-7.3,16.9s-5.1-8.5-10.7-19.6-10.2-19.9-10.4-19.9c-.2.2-4.3,9.2-9.1,19.9s-9.1,19.9-9.5,20.3-3.7-8.1-7.5-19-7-20.4-7.4-21.1-5.4,7.3-12.5,20.4c-6.5,11.8-12.2,21.2-12.6,20.7s-4.7-8.9-9.5-18.9l-8.7-18.1,27-70.4c14.9-38.7,27.4-71.3,27.8-72.3.6-1.6,1.1-.9,2.8,3.5C298.5,33.1,311.2,66.1,325.5,103.5Z" transform="translate(-12.19 -14.73)"/><path d="M572.8,748.7c.3,1-55.5,1.3-277.2,1.3C115.4,750,18,749.7,18,749c0-.5,48.9-128.4,108.6-284.2S235.8,179.9,236.5,178l1.3-3.5,10.2,21,10.1,20.9,4.7-8.4c2.6-4.7,7.9-14.2,11.7-21.2s7.2-12.4,7.6-12,3.6,9.7,7.4,20.7,7,20.3,7.4,20.7,4.8-8.7,10-20.3,9.7-20.9,10-20.9,5.1,8.8,10.5,19.5S337.7,214,338,214s4-8.1,8-18.1,7.6-17.6,8-17.2C354.5,179.3,568.4,736.5,572.8,748.7Z" transform="translate(-12.19 -14.73)"/><path d="M578.5,752.2c.7,1.7-13.2,1.8-283,1.8s-283.7-.1-283.3-1.7c.3-1,17.9-47,39.1-102.3s84-219.1,139.5-364S292.6,20.5,293.6,18.1c1.4-3.6,1.9-4.1,2.5-2.5ZM295.6,750c221.7,0,277.5-.3,277.2-1.3-4.4-12.2-218.3-569.4-218.8-570-.4-.4-4,7.3-8,17.2s-7.6,18.1-8,18.1-5.1-8.8-10.6-19.5S317.2,175,316.9,175s-4.8,9.4-10,20.9-9.7,20.7-10,20.3-3.7-9.7-7.4-20.7-7.1-20.3-7.4-20.7-3.8,5-7.6,12-9.1,16.5-11.7,21.2l-4.7,8.4L248,195.5l-10.2-21-1.3,3.5c-.7,1.9-50.2,131-109.9,286.8S18,748.5,18,749C18,749.7,115.4,750,295.6,750Zm56-578.5-26.1-68c-14.3-37.4-27-70.4-28.1-73.4-1.7-4.4-2.2-5.1-2.8-3.5-.4,1-12.9,33.6-27.8,72.3l-27,70.4,8.7,18.1c4.8,10,9,18.5,9.5,18.9s6.1-8.9,12.6-20.7c7.1-13.1,12.1-21.1,12.5-20.4s3.7,10.2,7.4,21.1,7.1,19.4,7.5,19,4.7-9.6,9.5-20.3,8.9-19.7,9.1-19.9c.2,0,4.86,8.92,10.4,19.9s10.4,19.9,10.7,19.6,3.7-7.9,7.3-16.9Z" transform="translate(-12.19 -14.73)"/></svg>

